<svg width="264" height="56" viewBox="0 0 264 56" fill="none" xmlns="http://www.w3.org/2000/svg">
<path fill-rule="evenodd" clip-rule="evenodd" d="M43.5171 22.6474L43.7006 20.8041L35.8651 26.3906L33.4331 24.4251L27.0635 29.4808L26 28.0744L33.495 22.4617L36.0973 24.4862L42.73 19.7559L40.9016 19.4807L41.3062 18L45.3124 18.6246L44.952 22.8046L43.5171 22.6474ZM31.3924 36.9716L26.4378 37L26.2719 31.5402L31.3571 31.1755L31.3924 36.9716ZM38.6885 36.9323L33.7272 36.9585L33.4375 28.6815L38.6531 28.3321L38.6885 36.9323ZM45.8408 36.8952L40.8154 36.9214L40.7071 24.6609L46 24.2831L45.8408 36.8952Z" fill="#262626"/>
<path d="M75.2588 21.7031V34.5H73.5713V23.0918H67.2607V34.5H65.5645V21.7031H75.2588ZM77.6582 29.8506V29.6484C77.6582 28.9629 77.7578 28.3271 77.957 27.7412C78.1562 27.1494 78.4434 26.6367 78.8184 26.2031C79.1934 25.7637 79.6475 25.4238 80.1807 25.1836C80.7139 24.9375 81.3115 24.8145 81.9736 24.8145C82.6416 24.8145 83.2422 24.9375 83.7754 25.1836C84.3145 25.4238 84.7715 25.7637 85.1465 26.2031C85.5273 26.6367 85.8174 27.1494 86.0166 27.7412C86.2158 28.3271 86.3154 28.9629 86.3154 29.6484V29.8506C86.3154 30.5361 86.2158 31.1719 86.0166 31.7578C85.8174 32.3438 85.5273 32.8564 85.1465 33.2959C84.7715 33.7295 84.3174 34.0693 83.7842 34.3154C83.2568 34.5557 82.6592 34.6758 81.9912 34.6758C81.3232 34.6758 80.7227 34.5557 80.1895 34.3154C79.6562 34.0693 79.1992 33.7295 78.8184 33.2959C78.4434 32.8564 78.1562 32.3438 77.957 31.7578C77.7578 31.1719 77.6582 30.5361 77.6582 29.8506ZM79.2842 29.6484V29.8506C79.2842 30.3252 79.3398 30.7734 79.4512 31.1953C79.5625 31.6113 79.7295 31.9805 79.9521 32.3027C80.1807 32.625 80.4648 32.8799 80.8047 33.0674C81.1445 33.249 81.54 33.3398 81.9912 33.3398C82.4365 33.3398 82.8262 33.249 83.1602 33.0674C83.5 32.8799 83.7812 32.625 84.0039 32.3027C84.2266 31.9805 84.3936 31.6113 84.5049 31.1953C84.6221 30.7734 84.6807 30.3252 84.6807 29.8506V29.6484C84.6807 29.1797 84.6221 28.7373 84.5049 28.3213C84.3936 27.8994 84.2236 27.5273 83.9951 27.2051C83.7725 26.877 83.4912 26.6191 83.1514 26.4316C82.8174 26.2441 82.4248 26.1504 81.9736 26.1504C81.5283 26.1504 81.1357 26.2441 80.7959 26.4316C80.4619 26.6191 80.1807 26.877 79.9521 27.2051C79.7295 27.5273 79.5625 27.8994 79.4512 28.3213C79.3398 28.7373 79.2842 29.1797 79.2842 29.6484ZM94.5684 24.9902V26.335H89.9717V24.9902H94.5684ZM96.001 24.9902V34.5H94.375V24.9902H96.001ZM89.5762 24.9902H91.2109L90.9648 29.5781C90.9238 30.2871 90.8564 30.9141 90.7627 31.459C90.6748 31.998 90.5518 32.4609 90.3936 32.8477C90.2412 33.2344 90.0479 33.5508 89.8135 33.7969C89.585 34.0371 89.3096 34.2158 88.9873 34.333C88.665 34.4443 88.293 34.5 87.8711 34.5H87.3613V33.0674L87.7129 33.041C87.9648 33.0234 88.1787 32.9648 88.3545 32.8652C88.5361 32.7656 88.6885 32.6191 88.8115 32.4258C88.9346 32.2266 89.0342 31.9717 89.1104 31.6611C89.1924 31.3506 89.2539 30.9814 89.2949 30.5537C89.3418 30.126 89.377 29.6279 89.4004 29.0596L89.5762 24.9902ZM100.378 31.9248L104.764 24.9902H106.398V34.5H104.764V27.5654L100.378 34.5H98.7607V24.9902H100.378V31.9248ZM112.885 24.9902V34.5H111.25V24.9902H112.885ZM116.075 24.9902V26.3086H108.121V24.9902H116.075ZM119.433 31.9248L123.818 24.9902H125.453V34.5H123.818V27.5654L119.433 34.5H117.815V24.9902H119.433V31.9248ZM129.83 24.9902V34.5H128.204V24.9902H129.83ZM136.07 24.9902L131.562 30.4395H129.285L129.039 29.0156H130.902L134.093 24.9902H136.07ZM134.321 34.5L130.823 30.1934L131.869 29.0156L136.387 34.5H134.321ZM143.409 32.874V27.9785C143.409 27.6035 143.333 27.2783 143.181 27.0029C143.034 26.7217 142.812 26.5049 142.513 26.3525C142.214 26.2002 141.845 26.124 141.405 26.124C140.995 26.124 140.635 26.1943 140.324 26.335C140.02 26.4756 139.779 26.6602 139.604 26.8887C139.434 27.1172 139.349 27.3633 139.349 27.627H137.723C137.723 27.2871 137.811 26.9502 137.986 26.6162C138.162 26.2822 138.414 25.9805 138.742 25.7109C139.076 25.4355 139.475 25.2188 139.938 25.0605C140.406 24.8965 140.928 24.8145 141.502 24.8145C142.193 24.8145 142.803 24.9316 143.33 25.166C143.863 25.4004 144.279 25.7549 144.578 26.2295C144.883 26.6982 145.035 27.2871 145.035 27.9961V32.4258C145.035 32.7422 145.062 33.0791 145.114 33.4365C145.173 33.7939 145.258 34.1016 145.369 34.3594V34.5H143.673C143.591 34.3125 143.526 34.0635 143.479 33.7529C143.433 33.4365 143.409 33.1436 143.409 32.874ZM143.69 28.7344L143.708 29.877H142.064C141.602 29.877 141.188 29.915 140.825 29.9912C140.462 30.0615 140.157 30.1699 139.911 30.3164C139.665 30.4629 139.478 30.6475 139.349 30.8701C139.22 31.0869 139.155 31.3418 139.155 31.6348C139.155 31.9336 139.223 32.2061 139.357 32.4521C139.492 32.6982 139.694 32.8945 139.964 33.041C140.239 33.1816 140.576 33.252 140.975 33.252C141.473 33.252 141.912 33.1465 142.293 32.9355C142.674 32.7246 142.976 32.4668 143.198 32.1621C143.427 31.8574 143.55 31.5615 143.567 31.2744L144.262 32.0566C144.221 32.3027 144.109 32.5752 143.928 32.874C143.746 33.1729 143.503 33.46 143.198 33.7354C142.899 34.0049 142.542 34.2305 142.126 34.4121C141.716 34.5879 141.253 34.6758 140.737 34.6758C140.093 34.6758 139.527 34.5498 139.041 34.2979C138.561 34.0459 138.186 33.709 137.916 33.2871C137.652 32.8594 137.521 32.3818 137.521 31.8545C137.521 31.3447 137.62 30.8965 137.819 30.5098C138.019 30.1172 138.306 29.792 138.681 29.5342C139.056 29.2705 139.507 29.0713 140.034 28.9365C140.562 28.8018 141.15 28.7344 141.801 28.7344H143.69Z" fill="#262626"/>
</svg>
